<svg xmlns="http://www.w3.org/2000/svg" width="128" height="128" viewBox="0 0 33.867 33.867" id="wechat"><path fill="#00a1ff" d="M14.345 2.381A13.361 11.601 0 0 0 1.058 13.982a13.361 11.601 0 0 0 4.274 8.505L3.846 25.06c-.523 1.13.544 1.693 1.272 1.272l3.38-1.95a13.361 11.601 0 0 0 5.922 1.2 13.361 11.601 0 0 0 13.36-11.6A13.361 11.601 0 0 0 14.42 2.38a13.361 11.601 0 0 0-.075 0z" paint-order="fill markers stroke"></path><path fill="#06f" d="M23.239 14.148a9.614 8.347 0 0 1 9.56 8.347 9.614 8.347 0 0 1-3.075 6.119l1.068 1.852c.377.813-.39 1.218-.915.916l-2.432-1.404a9.614 8.347 0 0 1-4.26.864 9.614 8.347 0 0 1-9.614-8.347 9.614 8.347 0 0 1 9.614-8.347 9.614 8.347 0 0 1 .054 0z" paint-order="fill markers stroke"></path><path fill="#fff" d="M10.097 12.201a1.636 1.636 0 0 1-1.636-1.636 1.636 1.636 0 0 1 1.636-1.636 1.636 1.636 0 0 1 1.636 1.636 1.636 1.636 0 0 1-1.636 1.636zm8.646 0a1.636 1.636 0 0 1-1.636-1.636 1.636 1.636 0 0 1 1.636-1.636 1.636 1.636 0 0 1 1.636 1.636 1.636 1.636 0 0 1-1.636 1.636zM19.703 21.528a1.636 1.636 0 0 1-1.636-1.636 1.636 1.636 0 0 1 1.636-1.636 1.636 1.636 0 0 1 1.636 1.636 1.636 1.636 0 0 1-1.636 1.636zm6.963 0a1.636 1.636 0 0 1-1.636-1.636 1.636 1.636 0 0 1 1.636-1.636 1.636 1.636 0 0 1 1.636 1.636 1.636 1.636 0 0 1-1.636 1.636z" paint-order="fill markers stroke"></path></svg>